<svg width="77" height="70" viewBox="0 0 77 70" fill="none" xmlns="http://www.w3.org/2000/svg">
<path d="M75.3502 47.1552C75.1842 47.1552 75.0162 47.1092 74.8662 47.0122L58.1122 36.1472C57.6992 35.8792 57.5822 35.3272 57.8492 34.9142C58.1182 34.5022 58.6682 34.3832 59.0822 34.6512L75.8362 45.5162C76.2492 45.7842 76.3662 46.3362 76.0992 46.7492C75.9282 47.0122 75.6422 47.1552 75.3502 47.1552Z" fill="#B0E0E6"/>
<path d="M1.57914 47.1554C1.28714 47.1554 1.00114 47.0124 0.830141 46.7484C0.562141 46.3354 0.680137 45.7834 1.09314 45.5154L17.8471 34.6504C18.2611 34.3814 18.8121 34.5004 19.0801 34.9134C19.3481 35.3264 19.2301 35.8784 18.8171 36.1464L2.06314 47.0114C1.91314 47.1094 1.74514 47.1554 1.57914 47.1554Z" fill="#B0E0E6"/>
<path d="M61.9171 29.8322C61.7511 29.8322 61.5831 29.7862 61.4331 29.6882L38.3711 14.7322L15.3811 29.1792C14.9631 29.4402 14.4141 29.3142 14.1521 28.8982C13.8901 28.4812 14.0151 27.9312 14.4321 27.6692L37.9051 12.9192C38.2001 12.7352 38.5741 12.7382 38.8651 12.9262L62.4041 28.1922C62.8171 28.4602 62.9341 29.0122 62.6671 29.4252C62.4951 29.6892 62.2091 29.8322 61.9171 29.8322Z" fill="#B0E0E6"/>
<path d="M38.3791 37.0773C38.1331 37.0773 37.9341 36.8773 37.9341 36.6313V24.6623C37.9341 24.4163 38.1331 24.2163 38.3791 24.2163C38.6251 24.2163 38.8241 24.4163 38.8241 24.6623V36.6313C38.8241 36.8773 38.6251 37.0773 38.3791 37.0773Z" fill="#B0E0E6"/>
<path d="M44.104 31.0932H32.653C32.407 31.0932 32.208 30.8932 32.208 30.6472C32.208 30.4012 32.407 30.2012 32.653 30.2012H44.104C44.35 30.2012 44.549 30.4012 44.549 30.6472C44.55 30.8932 44.351 31.0932 44.104 31.0932Z" fill="#B0E0E6"/>
<path d="M11.5163 62.3341C11.2703 62.3341 11.0713 62.1341 11.0713 61.8881V48.923C11.0713 48.677 11.2703 48.4771 11.5163 48.4771C11.7623 48.4771 11.9613 48.677 11.9613 48.923V61.8881C11.9613 62.1351 11.7623 62.3341 11.5163 62.3341Z" fill="#B0E0E6"/>
<path d="M15.4164 58.246H7.68035C7.43435 58.246 7.23535 58.046 7.23535 57.8C7.23535 57.554 7.43435 57.354 7.68035 57.354H15.4164C15.6624 57.354 15.8614 57.554 15.8614 57.8C15.8614 58.046 15.6624 58.246 15.4164 58.246Z" fill="#B0E0E6"/>
<path d="M15.4164 54.1244H7.68035C7.43435 54.1244 7.23535 53.9244 7.23535 53.6784C7.23535 53.4324 7.43435 53.2324 7.68035 53.2324H15.4164C15.6624 53.2324 15.8614 53.4324 15.8614 53.6784C15.8614 53.9244 15.6624 54.1244 15.4164 54.1244Z" fill="#B0E0E6"/>
<path d="M65.7712 62.3341C65.5252 62.3341 65.3262 62.1341 65.3262 61.8881V48.923C65.3262 48.677 65.5252 48.4771 65.7712 48.4771C66.0172 48.4771 66.2162 48.677 66.2162 48.923V61.8881C66.2172 62.1351 66.0182 62.3341 65.7712 62.3341Z" fill="#B0E0E6"/>
<path d="M69.6712 58.246H61.9352C61.6892 58.246 61.4902 58.046 61.4902 57.8C61.4902 57.554 61.6892 57.354 61.9352 57.354H69.6712C69.9172 57.354 70.1162 57.554 70.1162 57.8C70.1162 58.046 69.9172 58.246 69.6712 58.246Z" fill="#B0E0E6"/>
<path d="M69.6712 54.1244H61.9352C61.6892 54.1244 61.4902 53.9244 61.4902 53.6784C61.4902 53.4324 61.6892 53.2324 61.9352 53.2324H69.6712C69.9172 53.2324 70.1162 53.4324 70.1162 53.6784C70.1162 53.9244 69.9172 54.1244 69.6712 54.1244Z" fill="#B0E0E6"/>
<path d="M38.3789 15.9205C37.9649 15.9205 37.6289 15.5845 37.6289 15.1705V0.980469C37.6289 0.566469 37.9649 0.230469 38.3789 0.230469C38.7929 0.230469 39.1289 0.566469 39.1289 0.980469V15.1705C39.1289 15.5845 38.7929 15.9205 38.3789 15.9205Z" fill="#0047AB"/>
<path d="M42.5931 5.28857H34.1641C33.7501 5.28857 33.4141 4.95257 33.4141 4.53857C33.4141 4.12457 33.7501 3.78857 34.1641 3.78857H42.5931C43.0071 3.78857 43.3431 4.12457 43.3431 4.53857C43.3431 4.95357 43.0071 5.28857 42.5931 5.28857Z" fill="#0047AB"/>
<path d="M75.547 47.3787L58.793 36.5137C58.763 36.4947 58.73 36.4917 58.699 36.4767V29.1037L61.51 30.9267C61.636 31.0087 61.778 31.0477 61.917 31.0477C62.163 31.0477 62.403 30.9266 62.547 30.7056C62.773 30.3576 62.674 29.8937 62.326 29.6677L38.787 14.4016C38.542 14.2436 38.226 14.2407 37.979 14.3957L14.506 29.1447C14.155 29.3657 14.05 29.8287 14.271 30.1787C14.492 30.5297 14.953 30.6356 15.305 30.4146L18.058 28.6847V36.4597C18.013 36.4777 17.966 36.4857 17.923 36.5127L1.16996 47.3787C0.821955 47.6047 0.723959 48.0687 0.948959 48.4167C1.09296 48.6377 1.33296 48.7587 1.57896 48.7587C1.71896 48.7587 1.85996 48.7197 1.98596 48.6377L3.02396 47.9647V69.0437C3.02396 69.4577 3.35996 69.7937 3.77396 69.7937H18.808H18.979H57.949H73.155C73.569 69.7937 73.905 69.4577 73.905 69.0437V48.1027L74.73 48.6377C74.856 48.7187 74.998 48.7587 75.137 48.7587C75.383 48.7587 75.623 48.6377 75.767 48.4167C75.993 48.0687 75.895 47.6037 75.547 47.3787ZM38.372 15.9207L57.199 28.1307V68.2937H46.865V52.4937C46.865 47.6167 43.058 43.6476 38.379 43.6476C33.699 43.6476 29.893 47.6157 29.893 52.4937V68.2937H19.559V27.7437L38.372 15.9207ZM31.393 52.4927C31.393 48.7087 34.128 45.5856 37.629 45.1906V68.2927H31.393V52.4927ZM39.129 45.1917C42.63 45.5867 45.365 48.7097 45.365 52.4937V68.2937H39.129V45.1917ZM4.50496 47.0037L18.058 38.2137V68.2927H4.52396V47.0967C4.52396 47.0647 4.50996 47.0357 4.50496 47.0037ZM72.405 68.2937H58.699V38.2407L72.405 47.1297V68.2937Z" fill="#0047AB"/>
<path d="M7.68018 62.7345H15.4162C15.8302 62.7345 16.1662 62.3985 16.1662 61.9845V53.0975C16.1662 50.2865 14.0952 48.0005 11.5482 48.0005C9.00118 48.0005 6.93018 50.2875 6.93018 53.0975V61.9845C6.93018 62.3985 7.26618 62.7345 7.68018 62.7345ZM11.5482 49.5005C13.2682 49.5005 14.6662 51.1145 14.6662 53.0975V61.2345H8.43018V53.0975C8.43018 51.1145 9.82818 49.5005 11.5482 49.5005Z" fill="#0047AB"/>
<path d="M61.9351 62.7345H69.6711C70.0851 62.7345 70.4211 62.3985 70.4211 61.9845V53.0975C70.4211 50.2865 68.3501 48.0005 65.8031 48.0005C63.2561 48.0005 61.1851 50.2875 61.1851 53.0975V61.9845C61.1851 62.3985 61.5211 62.7345 61.9351 62.7345ZM65.8031 49.5005C67.5231 49.5005 68.9211 51.1145 68.9211 53.0975V61.2345H62.6851V53.0975C62.6851 51.1145 64.0831 49.5005 65.8031 49.5005Z" fill="#0047AB"/>
<path d="M38.3791 37.2226C42.0481 37.2226 45.0331 34.2376 45.0331 30.5676C45.0331 26.8986 42.0481 23.9136 38.3791 23.9136C34.7101 23.9136 31.7251 26.8986 31.7251 30.5676C31.7251 34.2366 34.7101 37.2226 38.3791 37.2226ZM38.3791 25.4126C41.2211 25.4126 43.5331 27.7246 43.5331 30.5666C43.5331 33.4086 41.2201 35.7216 38.3791 35.7216C35.5371 35.7216 33.2251 33.4086 33.2251 30.5666C33.2251 27.7246 35.5371 25.4126 38.3791 25.4126Z" fill="#0047AB"/>
</svg>
